<svg width="96" viewBox="0 0 32 12.77" xmlns="http://www.w3.org/2000/svg">
    <polygon fill="#eedded" points="4.79 4.83 3.36 4.83 1.24 6.96 1.24 0 0.15 0 0.15 10.47 1.24 10.47 1.24 8.28 1.61 7.91 3.63 10.47 5.03 10.47 2.38 7.17 4.79 4.83"></polygon>
    <path fill="#eedded" d="M16.18,5.77A2.77,2.77,0,0,0,15.33,5a2.15,2.15,0,0,0-1.13-.3,2.52,2.52,0,0,0-1.11.3,3,3,0,0,0-.84.66,2.9,2.9,0,0,0-.53.94,3.3,3.3,0,0,0-.19,1.12,3.85,3.85,0,0,0,.18,1.16,3,3,0,0,0,.53,1,2.53,2.53,0,0,0,.85.67,2.39,2.39,0,0,0,1.15.25,2.08,2.08,0,0,0,1.11-.3,2.62,2.62,0,0,0,.81-.78v.88h1.09V4.83H16.16Zm-.06,2.67a2.12,2.12,0,0,1-.36.66,1.65,1.65,0,0,1-.57.44,1.8,1.8,0,0,1-.79.16,1.57,1.57,0,0,1-.76-.17,1.42,1.42,0,0,1-.55-.45,2.32,2.32,0,0,1-.35-.66,2.53,2.53,0,0,1-.12-.77,2.16,2.16,0,0,1,.12-.71,2.32,2.32,0,0,1,.35-.66,1.61,1.61,0,0,1,.56-.44,1.5,1.5,0,0,1,.75-.17,1.8,1.8,0,0,1,.79.16,1.54,1.54,0,0,1,.57.44,1.81,1.81,0,0,1,.36.65,2.53,2.53,0,0,1,.12.77A2.4,2.4,0,0,1,16.12,8.44Z"></path>
    <path fill="#eedded" d="M10.06,5.37a1.59,1.59,0,0,0-.62-.53,2.39,2.39,0,0,0-1-.18,2.28,2.28,0,0,0-1,.23,1.71,1.71,0,0,0-.71.7V4.83H5.66v5.64H6.74V7.14a2,2,0,0,1,.14-.72,1.13,1.13,0,0,1,.41-.53,1.33,1.33,0,0,1,.82-.21,1.64,1.64,0,0,1,.66.11.7.7,0,0,1,.37.33,1.24,1.24,0,0,1,.18.52c0,.22,0,.43,0,.65v3.23h1.09V7.11a4.15,4.15,0,0,0-.09-1A2.23,2.23,0,0,0,10.06,5.37Z"></path>
    <path fill="#eedded" d="M23,5.54a2.26,2.26,0,0,0-.82-.65A2.72,2.72,0,0,0,21,4.66a3.16,3.16,0,0,0-1.21.22,2.45,2.45,0,0,0-.85.65,3,3,0,0,0-.52,1,4.11,4.11,0,0,0-.17,1.21,3.49,3.49,0,0,0,.19,1.19,2.76,2.76,0,0,0,.55,1,2.66,2.66,0,0,0,.86.63,2.94,2.94,0,0,0,1.17.23,3,3,0,0,0,1.53-.41,2.72,2.72,0,0,0,1.09-1.14l-.91-.51a3.15,3.15,0,0,1-.7.8,1.5,1.5,0,0,1-1,.29,1.69,1.69,0,0,1-.7-.15,2,2,0,0,1-.54-.42,2,2,0,0,1-.33-.6,1.84,1.84,0,0,1-.13-.69h4.31V7.67a4.25,4.25,0,0,0-.16-1.18A2.63,2.63,0,0,0,23,5.54ZM19.39,7a1.76,1.76,0,0,1,.53-1A1.6,1.6,0,0,1,21,5.63a1.46,1.46,0,0,1,1.05.31,1.82,1.82,0,0,1,.51,1Z"></path>
    <path fill="#eedded" d="M31.64,9.48a.67.67,0,0,0-.49-.21.71.71,0,0,0-.5.21.73.73,0,0,0-.19.49.65.65,0,0,0,.19.49.67.67,0,0,0,.5.21.7.7,0,0,0,.7-.7A.65.65,0,0,0,31.64,9.48Z"></path>
    <polygon fill="#eedded" points="29.3 4.83 27.86 4.83 25.73 6.96 25.73 0 24.65 0 24.65 10.47 25.73 10.47 25.73 8.28 26.11 7.91 28.12 10.47 29.53 10.47 26.88 7.17 29.3 4.83"></polygon>
</svg>